<svg width="48" height="42" viewBox="0 0 48 42" fill="none" xmlns="http://www.w3.org/2000/svg">
<path d="M0.0443304 41V0.704136H14.5187C19.7033 0.704136 23.6425 1.65434 26.3363 3.55474C29.0485 5.45514 30.4046 8.21348 30.4046 11.8298C30.4046 13.9147 29.9249 15.6952 28.9655 17.1712C28.006 18.6472 26.5946 19.7358 24.7311 20.4369C26.8344 20.9904 28.4489 22.0237 29.5743 23.5366C30.6998 25.0496 31.2626 26.8946 31.2626 29.0718C31.2626 33.0202 30.0079 35.9907 27.4987 37.9833C25.0078 39.9575 21.3085 40.9631 16.4007 41H0.0443304ZM9.75851 23.8687V33.5276H16.1239C17.8767 33.5276 19.2236 33.1309 20.1646 32.3375C21.1056 31.5257 21.576 30.391 21.576 28.9334C21.576 25.5754 19.9063 23.8872 16.5667 23.8687H9.75851ZM9.75851 17.5033H14.8232C16.945 17.4849 18.4579 17.0974 19.362 16.3409C20.2661 15.5845 20.7181 14.4682 20.7181 12.9922C20.7181 11.2947 20.2292 10.077 19.2513 9.33896C18.2734 8.58249 16.6959 8.20426 14.5187 8.20426H9.75851V17.5033ZM41.9731 31.95C43.4491 31.95 44.6761 32.3928 45.6539 33.2785C46.6318 34.1456 47.1208 35.2619 47.1208 36.6272C47.1208 37.9926 46.6318 39.1181 45.6539 40.0037C44.6761 40.8708 43.4491 41.3044 41.9731 41.3044C40.4786 41.3044 39.2424 40.8616 38.2645 39.976C37.3051 39.0904 36.8254 37.9741 36.8254 36.6272C36.8254 35.2803 37.3051 34.1641 38.2645 33.2785C39.2424 32.3928 40.4786 31.95 41.9731 31.95Z" fill="#3954FF"/>
</svg>
